# https://github.com/mikedh/trimesh
v 0.03031692 0.14294749 -0.12248211 0.94117647 0.52156863 0.41176471
v 0.03031692 0.14296758 -0.12254925 0.94117647 0.52156863 0.41176471
v 0.01339981 0.14294749 -0.10761771 0.94117647 0.52156863 0.41176471
v 0.03031692 0.14294749 -0.15152723 0.94117647 0.52156863 0.41176471
v 0.03031692 0.14419574 -0.12820201 0.94117647 0.52156863 0.41176471
v 0.01402462 0.14303102 -0.10850285 0.94117647 0.52156863 0.41176471
v 0.00913811 0.14294749 -0.10424193 0.94117647 0.52156863 0.41176471
v 0.00722830 0.14294749 -0.16183157 0.94117647 0.52156863 0.41176471
v 0.03031692 0.14388172 -0.14937234 0.94117647 0.52156863 0.41176471
v 0.03031692 0.14485840 -0.13257281 0.94117647 0.52156863 0.41176471
v 0.01592853 0.14605598 -0.12529628 0.94117647 0.52156863 0.41176471
v 0.00845435 0.14301322 -0.10400996 0.94117647 0.52156863 0.41176471
v 0.00738156 0.14294749 -0.10315534 0.94117647 0.52156863 0.41176471
v 0.00416908 0.14294749 -0.16316235 0.94117647 0.52156863 0.41176471
v 0.03031692 0.14397347 -0.14905490 0.94117647 0.52156863 0.41176471
v 0.03031692 0.14491272 -0.13364109 0.94117647 0.52156863 0.41176471
v 0.01757898 0.14618377 -0.12873921 0.94117647 0.52156863 0.41176471
v 0.01265121 0.14641790 -0.12605323 0.94117647 0.52156863 0.41176471
v 0.00893770 0.14633758 -0.12218910 0.94117647 0.52156863 0.41176471
v 0.00544818 0.14621481 -0.11935662 0.94117647 0.52156863 0.41176471
v 0.00168161 0.14612399 -0.11662181 0.94117647 0.52156863 0.41176471
v 0.00570164 0.14294749 -0.10258152 0.94117647 0.52156863 0.41176471
v 0.00297250 0.14294749 -0.16355303 0.94117647 0.52156863 0.41176471
v 0.00024926 0.14667758 -0.15039788 0.94117647 0.52156863 0.41176471
v 0.00500020 0.14641790 -0.14980575 0.94117647 0.52156863 0.41176471
v 0.03031692 0.14473291 -0.14629567 0.94117647 0.52156863 0.41176471
v 0.03031692 0.14514913 -0.13851246 0.94117647 0.52156863 0.41176471
v 0.01491468 0.14648864 -0.13021648 0.94117647 0.52156863 0.41176471
v 0.00603762 0.14659680 -0.12417915 0.94117647 0.52156863 0.41176471
v -0.00036966 0.14756161 -0.14061241 0.94117647 0.52156863 0.41176471
v 0.00136331 0.14647496 -0.11910632 0.94117647 0.52156863 0.41176471
v -0.00298091 0.14621481 -0.11613345 0.94117647 0.52156863 0.41176471
v -0.00374719 0.14579263 -0.11366113 0.94117647 0.52156863 0.41176471
v 0.00333206 0.14294749 -0.10197716 0.94117647 0.52156863 0.41176471
v -0.00253293 0.14294749 -0.16423063 0.94117647 0.52156863 0.41176471
v 0.00263062 0.14318527 -0.16274114 0.94117647 0.52156863 0.41176471
v -0.00090605 0.14542389 -0.15509224 0.94117647 0.52156863 0.41176471
v -0.00223820 0.14419527 -0.15970111 0.94117647 0.52156863 0.41176471
v -0.00455473 0.14527418 -0.15574542 0.94117647 0.52156863 0.41176471
v -0.00431305 0.14643569 -0.15128915 0.94117647 0.52156863 0.41176471
v -0.00249756 0.14733981 -0.14744942 0.94117647 0.52156863 0.41176471
v 0.00243611 0.14724398 -0.14726630 0.94117647 0.52156863 0.41176471
v 0.03031692 0.14480044 -0.14589278 0.94117647 0.52156863 0.41176471
v 0.03031692 0.14510167 -0.14271845 0.94117647 0.52156863 0.41176471
v 0.00504735 0.14721476 -0.14389662 0.94117647 0.52156863 0.41176471
v -0.00086479 0.14760999 -0.14433613 0.94117647 0.52156863 0.41176471
v -0.00512649 0.14741054 -0.13917786 0.94117647 0.52156863 0.41176471
v -0.00341710 0.14730193 -0.13459338 0.94117647 0.52156863 0.41176471
v -0.00200243 0.14704955 -0.12969761 0.94117647 0.52156863 0.41176471
v -0.00278639 0.14663880 -0.12206701 0.94117647 0.52156863 0.41176471
v -0.00961807 0.14637500 -0.11988771 0.94117647 0.52156863 0.41176471
v -0.00758448 0.14609067 -0.11673170 0.94117647 0.52156863 0.41176471
v -0.01156324 0.14570364 -0.11676832 0.94117647 0.52156863 0.41176471
v -0.00642327 0.14550284 -0.11362451 0.94117647 0.52156863 0.41176471
v -0.00562163 0.14294749 -0.10342393 0.94117647 0.52156863 0.41176471
v -0.00114773 0.14294749 -0.10228239 0.94117647 0.52156863 0.41176471
v 0.00014905 0.14294749 -0.10203822 0.94117647 0.52156863 0.41176471
v 0.00019621 0.14300318 -0.10224576 0.94117647 0.52156863 0.41176471
v 0.00145762 0.14294749 -0.10186728 0.94117647 0.52156863 0.41176471
v -0.00265082 0.14294749 -0.16420621 0.94117647 0.52156863 0.41176471
v -0.00751375 0.14294749 -0.16311961 0.94117647 0.52156863 0.41176471
v -0.00775542 0.14344725 -0.16131270 0.94117647 0.52156863 0.41176471
v -0.00693020 0.14568585 -0.15345013 0.94117647 0.52156863 0.41176471
v -0.00807962 0.14637363 -0.15004992 0.94117647 0.52156863 0.41176471
v -0.00714829 0.14704271 -0.14726630 0.94117647 0.52156863 0.41176471
v -0.02990092 0.14520481 -0.14640555 0.94117647 0.52156863 0.41176471
v -0.02990092 0.14586657 -0.14350593 0.94117647 0.52156863 0.41176471
v -0.00601655 0.14743292 -0.14402480 0.94117647 0.52156863 0.41176471
v 0.03031692 0.14509299 -0.14282224 0.94117647 0.52156863 0.41176471
v -0.02990092 0.14598158 -0.14060630 0.94117647 0.52156863 0.41176471
v -0.02990092 0.14593230 -0.13814621 0.94117647 0.52156863 0.41176471
v -0.01498793 0.14641197 -0.12306814 0.94117647 0.52156863 0.41176471
v -0.01201712 0.14651191 -0.12250042 0.94117647 0.52156863 0.41176471
v -0.00638201 0.14714676 -0.13350679 0.94117647 0.52156863 0.41176471
v -0.00760806 0.14683184 -0.12706657 0.94117647 0.52156863 0.41176471
v -0.01375598 0.14613859 -0.11973509 0.94117647 0.52156863 0.41176471
v -0.01438080 0.14294749 -0.10751392 0.94117647 0.52156863 0.41176471
v -0.01131568 0.14294749 -0.10591456 0.94117647 0.52156863 0.41176471
v -0.00980080 0.14294749 -0.10512707 0.94117647 0.52156863 0.41176471
v -0.00751375 0.14311728 -0.10484628 0.94117647 0.52156863 0.41176471
v -0.01029593 0.14294749 -0.16211239 0.94117647 0.52156863 0.41176471
v -0.01085002 0.14307438 -0.16147751 0.94117647 0.52156863 0.41176471
v -0.02990092 0.14453575 -0.14868864 0.94117647 0.52156863 0.41176471
v -0.02990092 0.14564523 -0.13486199 0.94117647 0.52156863 0.41176471
v -0.02084702 0.14591359 -0.12563202 0.94117647 0.52156863 0.41176471
v -0.01759328 0.14594279 -0.12195712 0.94117647 0.52156863 0.41176471
v -0.01876628 0.14294749 -0.11026094 0.94117647 0.52156863 0.41176471
v -0.01558916 0.14294749 -0.10822205 0.94117647 0.52156863 0.41176471
v -0.01509992 0.14294749 -0.10792903 0.94117647 0.52156863 0.41176471
v -0.01083233 0.14294749 -0.16191092 0.94117647 0.52156863 0.41176471
v -0.02990092 0.14417472 -0.14973250 0.94117647 0.52156863 0.41176471
v -0.02990092 0.14517651 -0.13093682 0.94117647 0.52156863 0.41176471
v -0.02990092 0.14470506 -0.12768312 0.94117647 0.52156863 0.41176471
v -0.02990092 0.14418295 -0.12464309 0.94117647 0.52156863 0.41176471
v -0.02990092 0.14294749 -0.11936881 0.94117647 0.52156863 0.41176471
v -0.01145125 0.14294749 -0.16163012 0.94117647 0.52156863 0.41176471
v -0.02990092 0.14298630 -0.15194844 0.94117647 0.52156863 0.41176471
v -0.01434543 0.14294749 -0.16017115 0.94117647 0.52156863 0.41176471
v -0.02990092 0.14294749 -0.15201558 0.94117647 0.52156863 0.41176471
vn 0.78826161 -0.18393478 0.58720663
vn 0.76735584 0.62354874 0.14950580
vn 0.61909631 -0.13283050 0.77399988
vn 0.68525558 -0.20574144 -0.69863814
vn 0.75651961 0.64399459 0.11379386
vn 0.17966871 0.96032814 0.21328157
vn 0.60518142 -0.13182131 0.78509782
vn 0.39122887 -0.19823804 -0.89868885
vn 0.73990981 0.63727677 -0.21543396
vn 0.74234120 0.66737299 0.05952182
vn 0.12550118 0.98236167 0.13861819
vn 0.15150843 0.95681101 0.24810864
vn 0.38541390 -0.10289939 0.91698846
vn 0.32911082 -0.13453154 -0.93465894
vn 0.74264873 0.64488095 -0.18055867
vn 0.74736469 0.66360412 0.03279607
vn 0.10903665 0.99189688 0.06520417
vn 0.06577199 0.99535198 0.07034548
vn 0.08223685 0.98889486 0.12379034
vn 0.09168535 0.98338434 0.15668135
vn 0.06638041 0.98362275 0.16757067
vn 0.28370532 -0.10431953 0.95322019
vn 0.21658651 -0.12790954 -0.96784784
vn 0.03822678 0.97109689 -0.23560462
vn 0.09205802 0.96646249 -0.23974063
vn 0.73033219 0.66749525 -0.14513780
vn 0.73338507 0.67978581 0.00613127
vn 0.07342591 0.99690459 0.02810487
vn 0.03737930 0.99785553 0.05373197
vn 0.02040210 0.99957456 0.02084352
vn 0.03159542 0.99509714 0.09371985
vn -0.00285203 0.99129400 0.13163610
vn -0.02939976 0.97735224 0.20956683
vn 0.17368359 -0.10355702 0.97934159
vn -0.02766390 -0.12478345 -0.99179826
vn 0.03727468 0.96322737 -0.26608951
vn 0.02289302 0.96444024 -0.26330768
vn 0.01470353 0.96404512 -0.26533150
vn -0.04151029 0.96443617 -0.26103594
vn -0.04595742 0.97214570 -0.22982745
vn -0.02273328 0.98880167 -0.14749394
vn 0.06621223 0.98777770 -0.14110687
vn 0.73169567 0.67590722 -0.08815253
vn 0.72945299 0.68332536 -0.03106094
vn 0.07645512 0.99672065 -0.02650602
vn 0.01330327 0.99932358 -0.03428408
vn -0.04050413 0.99889619 0.02378693
vn -0.01404002 0.99896080 0.04336133
vn 0.00493799 0.99867676 0.05118923
vn -0.00938314 0.99811670 0.06062186
vn -0.03545929 0.99485037 0.09494935
vn -0.06863199 0.98371090 0.16614007
vn -0.11614825 0.96587204 0.23151842
vn -0.10443501 0.96527022 0.23947177
vn -0.30456131 -0.12879218 0.94374519
vn -0.20625522 -0.12832499 0.97004715
vn -0.15296100 -0.12633377 0.98012382
vn -0.03555150 0.96765446 0.24976176
vn -0.01032635 -0.11222102 0.99362961
vn -0.20633754 -0.14240513 -0.96806281
vn -0.26628658 -0.13997443 -0.95367637
vn -0.08757869 0.95843232 -0.27154641
vn -0.08858174 0.96485877 -0.24738802
vn -0.08663755 0.97295378 -0.21413753
vn -0.07409895 0.98556703 -0.15220702
vn -0.73448167 0.65798194 -0.16612178
vn -0.71428526 0.69441572 -0.08708261
vn -0.05400603 0.99780008 -0.03844925
vn 0.73719702 0.67302617 -0.05980237
vn -0.72231203 0.69154828 -0.00512784
vn -0.72553009 0.68768424 0.02639085
vn -0.08323163 0.99336459 0.07936805
vn -0.03856023 0.99688514 0.06879776
vn -0.03835729 0.99854295 0.03795661
vn -0.01714875 0.99844511 0.05304047
vn -0.11302533 0.97857206 0.17211043
vn -0.47408833 -0.13930264 0.86938773
vn -0.45713267 -0.14046306 0.87823678
vn -0.40827893 -0.13348322 0.90304515
vn -0.10176867 0.96291091 0.24989139
vn -0.33840784 -0.15001189 -0.92896532
vn -0.10758060 0.95535462 -0.27517989
vn -0.74480874 0.63749187 -0.19713967
vn -0.74731905 0.66144423 0.06329115
vn -0.14054479 0.98366977 0.11243194
vn -0.15717487 0.97314668 0.16817134
vn -0.57659439 -0.14076570 0.80481298
vn -0.51854054 -0.14219997 0.84314582
vn -0.50003266 -0.14160230 0.85435129
vn -0.36114387 -0.15233859 -0.91998264
vn -0.75158464 0.61151400 -0.24732803
vn -0.75690645 0.64826777 0.08271352
vn -0.76159208 0.64043214 0.09911702
vn -0.76209616 0.63498811 0.12648927
vn -0.78028663 -0.14344447 0.60874991
vn -0.40813036 -0.18145144 -0.89470944
vn -0.78608076 0.54130554 -0.29843819
vn -0.43748734 -0.24096365 -0.86633790
vn -0.70378098 -0.26825371 -0.65782390
f 1//1 2//2 3//3
f 1//1 3//3 7//7
f 1//1 7//7 13//13
f 1//1 13//13 22//22
f 1//1 22//22 34//34
f 1//1 34//34 59//59
f 1//1 59//59 57//57
f 1//1 57//57 56//56
f 1//1 56//56 55//55
f 1//1 55//55 79//79
f 1//1 79//79 78//78
f 1//1 78//78 77//77
f 1//1 77//77 89//89
f 1//1 89//89 88//88
f 1//1 88//88 87//87
f 1//1 87//87 95//95
f 1//1 95//95 99//99
f 1//1 99//99 98//98
f 1//1 98//98 96//96
f 1//1 96//96 90//90
f 1//1 90//90 81//81
f 1//1 81//81 61//61
f 1//1 61//61 60//60
f 1//1 60//60 35//35
f 1//1 35//35 23//23
f 1//1 23//23 14//14
f 1//1 14//14 8//8
f 1//1 8//8 4//4
f 1//1 4//4 9//9
f 1//1 9//9 15//15
f 1//1 15//15 26//26
f 1//1 26//26 43//43
f 1//1 43//43 69//69
f 1//1 69//69 44//44
f 1//1 44//44 27//27
f 1//1 27//27 16//16
f 1//1 16//16 10//10
f 1//1 10//10 5//5
f 1//1 5//5 2//2
f 2//2 5//5 6//6
f 2//2 6//6 3//3
f 3//3 6//6 7//7
f 4//4 8//8 9//9
f 5//5 10//10 11//11
f 5//5 11//11 6//6
f 6//6 12//12 7//7
f 6//6 11//11 12//12
f 7//7 12//12 13//13
f 8//8 14//14 9//9
f 9//9 14//14 15//15
f 10//10 16//16 17//17
f 10//10 17//17 11//11
f 11//11 17//17 18//18
f 11//11 18//18 19//19
f 11//11 19//19 12//12
f 12//12 19//19 20//20
f 12//12 20//20 21//21
f 12//12 21//21 13//13
f 13//13 21//21 22//22
f 14//14 23//23 24//24
f 14//14 24//24 25//25
f 14//14 25//25 26//26
f 14//14 26//26 15//15
f 16//16 27//27 17//17
f 17//17 27//27 28//28
f 17//17 28//28 18//18
f 18//18 29//29 19//19
f 18//18 28//28 30//30
f 18//18 30//30 29//29
f 19//19 29//29 31//31
f 19//19 31//31 20//20
f 20//20 31//31 21//21
f 21//21 31//31 32//32
f 21//21 32//32 33//33
f 21//21 33//33 22//22
f 22//22 33//33 34//34
f 23//23 35//35 36//36
f 23//23 36//36 24//24
f 24//24 36//36 37//37
f 24//24 37//37 38//38
f 24//24 38//38 39//39
f 24//24 39//39 40//40
f 24//24 40//40 41//41
f 24//24 41//41 42//42
f 24//24 42//42 25//25
f 25//25 42//42 26//26
f 26//26 42//42 43//43
f 27//27 44//44 45//45
f 27//27 45//45 28//28
f 28//28 45//45 30//30
f 29//29 30//30 31//31
f 30//30 45//45 46//46
f 30//30 46//46 47//47
f 30//30 47//47 48//48
f 30//30 48//48 49//49
f 30//30 49//49 31//31
f 31//31 49//49 50//50
f 31//31 50//50 32//32
f 32//32 50//50 51//51
f 32//32 51//51 52//52
f 32//32 52//52 33//33
f 33//33 52//52 53//53
f 33//33 53//53 54//54
f 33//33 54//54 55//55
f 33//33 55//55 56//56
f 33//33 56//56 57//57
f 33//33 57//57 58//58
f 33//33 58//58 59//59
f 33//33 59//59 34//34
f 35//35 38//38 36//36
f 35//35 60//60 39//39
f 35//35 39//39 38//38
f 36//36 38//38 37//37
f 39//39 60//60 61//61
f 39//39 61//61 62//62
f 39//39 62//62 63//63
f 39//39 63//63 40//40
f 40//40 64//64 65//65
f 40//40 65//65 41//41
f 40//40 63//63 66//66
f 40//40 66//66 64//64
f 41//41 65//65 67//67
f 41//41 67//67 68//68
f 41//41 68//68 46//46
f 41//41 46//46 42//42
f 42//42 46//46 45//45
f 42//42 45//45 44//44
f 42//42 44//44 69//69
f 42//42 69//69 43//43
f 46//46 68//68 47//47
f 47//47 68//68 70//70
f 47//47 70//70 71//71
f 47//47 71//71 72//72
f 47//47 72//72 73//73
f 47//47 73//73 74//74
f 47//47 74//74 48//48
f 48//48 74//74 73//73
f 48//48 73//73 75//75
f 48//48 75//75 50//50
f 48//48 50//50 49//49
f 50//50 75//75 73//73
f 50//50 73//73 51//51
f 51//51 73//73 72//72
f 51//51 72//72 76//76
f 51//51 76//76 52//52
f 52//52 76//76 53//53
f 53//53 77//77 78//78
f 53//53 78//78 79//79
f 53//53 79//79 54//54
f 53//53 76//76 77//77
f 54//54 79//79 80//80
f 54//54 80//80 55//55
f 55//55 80//80 79//79
f 57//57 59//59 58//58
f 61//61 81//81 82//82
f 61//61 82//82 62//62
f 62//62 82//82 66//66
f 62//62 66//66 63//63
f 64//64 66//66 67//67
f 64//64 67//67 65//65
f 66//66 82//82 83//83
f 66//66 83//83 91//91
f 66//66 91//91 97//97
f 66//66 97//97 99//99
f 66//66 99//99 95//95
f 66//66 95//95 94//94
f 66//66 94//94 93//93
f 66//66 93//93 92//92
f 66//66 92//92 84//84
f 66//66 84//84 71//71
f 66//66 71//71 70//70
f 66//66 70//70 67//67
f 67//67 70//70 68//68
f 71//71 84//84 72//72
f 72//72 84//84 85//85
f 72//72 85//85 86//86
f 72//72 86//86 76//76
f 76//76 86//86 87//87
f 76//76 87//87 88//88
f 76//76 88//88 89//89
f 76//76 89//89 77//77
f 81//81 90//90 82//82
f 82//82 90//90 83//83
f 83//83 90//90 91//91
f 84//84 92//92 85//85
f 85//85 92//92 86//86
f 86//86 92//92 93//93
f 86//86 93//93 94//94
f 86//86 94//94 95//95
f 86//86 95//95 87//87
f 90//90 96//96 91//91
f 91//91 96//96 98//98
f 91//91 98//98 97//97
f 97//97 98//98 99//99
