# https://github.com/mikedh/trimesh
v 0.01636326 -0.12553962 -0.04604584 0.61176471 0.61568627 0.94117647
v 0.01636326 -0.14286697 -0.04604584 0.61176471 0.61568627 0.94117647
v 0.01636326 -0.12481756 -0.04607484 0.61176471 0.61568627 0.94117647
v 0.01538865 -0.12481756 -0.04604584 0.61176471 0.61568627 0.94117647
v 0.00113418 -0.14513570 -0.04604584 0.61176471 0.61568627 0.94117647
v 0.01636326 -0.14287500 -0.04666460 0.61176471 0.61568627 0.94117647
v 0.01636326 -0.12481756 -0.14237972 0.61176471 0.61568627 0.94117647
v -0.01945172 -0.12481756 -0.04605551 0.61176471 0.61568627 0.94117647
v -0.01945172 -0.13013946 -0.04604584 0.61176471 0.61568627 0.94117647
v -0.00107095 -0.14529258 -0.04604584 0.61176471 0.61568627 0.94117647
v 0.00024722 -0.14530063 -0.04975843 0.61176471 0.61568627 0.94117647
v 0.01636326 -0.14287098 -0.04687731 0.61176471 0.61568627 0.94117647
v 0.01636326 -0.12630391 -0.13916020 0.61176471 0.61568627 0.94117647
v 0.01032632 -0.12649298 -0.14011735 0.61176471 0.61568627 0.94117647
v 0.01215984 -0.12481756 -0.14325953 0.61176471 0.61568627 0.94117647
v -0.01945172 -0.12481756 -0.13824172 0.61176471 0.61568627 0.94117647
v -0.01945172 -0.13679485 -0.04604584 0.61176471 0.61568627 0.94117647
v -0.00249780 -0.14527649 -0.04604584 0.61176471 0.61568627 0.94117647
v -0.00144607 -0.14536500 -0.04991311 0.61176471 0.61568627 0.94117647
v -0.00251884 -0.14519404 -0.05593640 0.61176471 0.61568627 0.94117647
v -0.00007531 -0.14510152 -0.05396409 0.61176471 0.61568627 0.94117647
v 0.01636326 -0.14208457 -0.08099635 0.61176471 0.61568627 0.94117647
v 0.01636326 -0.12649497 -0.13872512 0.61176471 0.61568627 0.94117647
v 0.00585996 -0.12539680 -0.14322083 0.61176471 0.61568627 0.94117647
v 0.01190391 -0.12481756 -0.14330785 0.61176471 0.61568627 0.94117647
v 0.00473110 -0.12934098 -0.13490620 0.61176471 0.61568627 0.94117647
v 0.00476616 -0.12754689 -0.13887015 0.61176471 0.61568627 0.94117647
v -0.00655749 -0.12481756 -0.14337553 0.61176471 0.61568627 0.94117647
v -0.00691157 -0.12581517 -0.14116152 0.61176471 0.61568627 0.94117647
v -0.00771439 -0.12731761 -0.13769063 0.61176471 0.61568627 0.94117647
v -0.01945172 -0.12642460 -0.13468383 0.61176471 0.61568627 0.94117647
v -0.01945172 -0.14236213 -0.04615219 0.61176471 0.61568627 0.94117647
v -0.01944821 -0.14235811 -0.04604584 0.61176471 0.61568627 0.94117647
v -0.00317792 -0.14525437 -0.04604584 0.61176471 0.61568627 0.94117647
v -0.00347591 -0.14529862 -0.04773777 0.61176471 0.61568627 0.94117647
v -0.00431379 -0.14525236 -0.05428314 0.61176471 0.61568627 0.94117647
v -0.00400178 -0.14489837 -0.06004538 0.61176471 0.61568627 0.94117647
v -0.00262752 -0.14325514 -0.08351008 0.61176471 0.61568627 0.94117647
v 0.00157591 -0.14326118 -0.08205985 0.61176471 0.61568627 0.94117647
v 0.00530955 -0.14315255 -0.07890802 0.61176471 0.61568627 0.94117647
v 0.00561105 -0.14264974 -0.08670058 0.61176471 0.61568627 0.94117647
v 0.01636326 -0.14174667 -0.08486363 0.61176471 0.61568627 0.94117647
v 0.01636326 -0.12809999 -0.13487719 0.61176471 0.61568627 0.94117647
v 0.01161995 -0.12816033 -0.13599871 0.61176471 0.61568627 0.94117647
v 0.00361627 -0.12481756 -0.14462273 0.61176471 0.61568627 0.94117647
v 0.00581439 -0.12481756 -0.14439069 0.61176471 0.61568627 0.94117647
v 0.00115872 -0.12892462 -0.13642409 0.61176471 0.61568627 0.94117647
v 0.00922200 -0.12980759 -0.13257615 0.61176471 0.61568627 0.94117647
v 0.00346201 -0.13106667 -0.13076821 0.61176471 0.61568627 0.94117647
v 0.00062584 -0.13008918 -0.13377501 0.61176471 0.61568627 0.94117647
v -0.00288344 -0.12481756 -0.14442936 0.61176471 0.61568627 0.94117647
v -0.00337425 -0.12711044 -0.13964359 0.61176471 0.61568627 0.94117647
v -0.00234705 -0.12935305 -0.13508023 0.61176471 0.61568627 0.94117647
v -0.00671174 -0.12879993 -0.13475150 0.61176471 0.61568627 0.94117647
v -0.01945172 -0.12704606 -0.13318525 0.61176471 0.61568627 0.94117647
v -0.01728515 -0.14279456 -0.04604584 0.61176471 0.61568627 0.94117647
v -0.01945172 -0.14266583 -0.05309394 0.61176471 0.61568627 0.94117647
v -0.00413500 -0.14512365 -0.04604584 0.61176471 0.61568627 0.94117647
v -0.00624547 -0.14489837 -0.04872392 0.61176471 0.61568627 0.94117647
v -0.00618938 -0.14503513 -0.05250419 0.61176471 0.61568627 0.94117647
v -0.00512012 -0.14496675 -0.04604584 0.61176471 0.61568627 0.94117647
v -0.01945172 -0.14279857 -0.08358742 0.61176471 0.61568627 0.94117647
v -0.00620691 -0.14376199 -0.07563050 0.61176471 0.61568627 0.94117647
v -0.00727968 -0.14312842 -0.08365510 0.61176471 0.61568627 0.94117647
v -0.01945172 -0.14262761 -0.08602381 0.61176471 0.61568627 0.94117647
v -0.00382649 -0.14253108 -0.09107061 0.61176471 0.61568627 0.94117647
v 0.00142516 -0.14268593 -0.08904029 0.61176471 0.61568627 0.94117647
v 0.00526749 -0.14178689 -0.09318795 0.61176471 0.61568627 0.94117647
v 0.00923953 -0.14192165 -0.08971706 0.61176471 0.61568627 0.94117647
v 0.01636326 -0.14118552 -0.08904996 0.61176471 0.61568627 0.94117647
v 0.01636326 -0.12912375 -0.13217011 0.61176471 0.61568627 0.94117647
v 0.00146723 -0.12481756 -0.14480641 0.61176471 0.61568627 0.94117647
v 0.00007894 -0.12787071 -0.13862844 0.61176471 0.61568627 0.94117647
v 0.00102199 -0.12614502 -0.14211866 0.61176471 0.61568627 0.94117647
v 0.01636326 -0.12947170 -0.13122261 0.61176471 0.61568627 0.94117647
v 0.00458035 -0.13245447 -0.12668823 0.61176471 0.61568627 0.94117647
v -0.00022256 -0.13280645 -0.12662056 0.61176471 0.61568627 0.94117647
v -0.00160734 -0.13125773 -0.13064253 0.61176471 0.61568627 0.94117647
v -0.00246976 -0.12481756 -0.14447771 0.61176471 0.61568627 0.94117647
v -0.00636817 -0.13087761 -0.12979171 0.61176471 0.61568627 0.94117647
v -0.01945172 -0.12823275 -0.13017845 0.61176471 0.61568627 0.94117647
v -0.01692055 -0.14286494 -0.04604584 0.61176471 0.61568627 0.94117647
v -0.01945172 -0.14267187 -0.05349035 0.61176471 0.61568627 0.94117647
v -0.01945172 -0.14277041 -0.06069314 0.61176471 0.61568627 0.94117647
v -0.01945172 -0.14280461 -0.08084166 0.61176471 0.61568627 0.94117647
v -0.01945172 -0.14224547 -0.08904029 0.61176471 0.61568627 0.94117647
v -0.00486770 -0.14210869 -0.09426111 0.61176471 0.61568627 0.94117647
v 0.00117975 -0.14191762 -0.09463817 0.61176471 0.61568627 0.94117647
v 0.00351810 -0.14083153 -0.09904686 0.61176471 0.61568627 0.94117647
v 0.01636326 -0.14038099 -0.09448349 0.61176471 0.61568627 0.94117647
v 0.00598967 -0.13462263 -0.12003651 0.61176471 0.61568627 0.94117647
v 0.01636326 -0.13421836 -0.11742610 0.61176471 0.61568627 0.94117647
v 0.01070143 -0.13532460 -0.11643028 0.61176471 0.61568627 0.94117647
v 0.00262764 -0.13574897 -0.11782251 0.61176471 0.61568627 0.94117647
v 0.00222798 -0.13421033 -0.12223119 0.61176471 0.61568627 0.94117647
v -0.00071336 -0.13604060 -0.11731974 0.61176471 0.61568627 0.94117647
v -0.00458374 -0.13632621 -0.11568583 0.61176471 0.61568627 0.94117647
v -0.00381247 -0.13447581 -0.12110968 0.61176471 0.61568627 0.94117647
v -0.00421563 -0.13264151 -0.12620483 0.61176471 0.61568627 0.94117647
v -0.01945172 -0.13301562 -0.11800620 0.61176471 0.61568627 0.94117647
v -0.01945172 -0.14128609 -0.09349732 0.61176471 0.61568627 0.94117647
v -0.00517972 -0.14167023 -0.09616575 0.61176471 0.61568627 0.94117647
v -0.00203153 -0.14181103 -0.09586603 0.61176471 0.61568627 0.94117647
v 0.00073803 -0.14116137 -0.09865046 0.61176471 0.61568627 0.94117647
v 0.01636326 -0.13900727 -0.10132857 0.61176471 0.61568627 0.94117647
v 0.01636326 -0.14026032 -0.09510225 0.61176471 0.61568627 0.94117647
v 0.00532708 -0.13929690 -0.10490578 0.61176471 0.61568627 0.94117647
v 0.00649100 -0.13596216 -0.11595654 0.61176471 0.61568627 0.94117647
v 0.01636326 -0.13493639 -0.11530877 0.61176471 0.61568627 0.94117647
v 0.01058574 -0.13648912 -0.11283371 0.61176471 0.61568627 0.94117647
v 0.00550588 -0.13767378 -0.11090007 0.61176471 0.61568627 0.94117647
v 0.00135855 -0.13734594 -0.11309475 0.61176471 0.61568627 0.94117647
v -0.00201050 -0.13860703 -0.10915013 0.61176471 0.61568627 0.94117647
v -0.00314637 -0.13756114 -0.11236963 0.61176471 0.61568627 0.94117647
v -0.00793525 -0.13753098 -0.11080340 0.61176471 0.61568627 0.94117647
v -0.00964958 -0.13586965 -0.11475767 0.61176471 0.61568627 0.94117647
v -0.00633662 -0.13346414 -0.12298531 0.61176471 0.61568627 0.94117647
v -0.01945172 -0.13464075 -0.11363617 0.61176471 0.61568627 0.94117647
v -0.01945172 -0.14043330 -0.09685218 0.61176471 0.61568627 0.94117647
v -0.00873457 -0.13996264 -0.10210202 0.61176471 0.61568627 0.94117647
v -0.00723059 -0.14098640 -0.09844745 0.61176471 0.61568627 0.94117647
v -0.00354252 -0.13980374 -0.10424836 0.61176471 0.61568627 0.94117647
v -0.00248027 -0.14096026 -0.09953995 0.61176471 0.61568627 0.94117647
v 0.00111314 -0.14012556 -0.10290448 0.61176471 0.61568627 0.94117647
v 0.00873469 -0.13799962 -0.10855070 0.61176471 0.61568627 0.94117647
v 0.01200909 -0.13760942 -0.10838635 0.61176471 0.61568627 0.94117647
v 0.01636326 -0.13657762 -0.10998160 0.61176471 0.61568627 0.94117647
v 0.00135154 -0.13886045 -0.10792227 0.61176471 0.61568627 0.94117647
v -0.00637519 -0.13881420 -0.10734218 0.61176471 0.61568627 0.94117647
v -0.01945172 -0.13618742 -0.10932416 0.61176471 0.61568627 0.94117647
v -0.01945172 -0.14029451 -0.09732592 0.61176471 0.61568627 0.94117647
vn 0.70574671 0.00844910 0.70841385
vn 0.61443505 -0.52529720 0.58867004
vn 0.58706172 0.58915889 0.55520297
vn 0.00426334 0.70665544 0.70754499
vn 0.08156199 -0.70498782 0.70451389
vn 0.75487291 -0.65587049 -0.00089260
vn 0.61476498 0.19699736 -0.76371203
vn -0.57751865 0.57784128 0.57669027
vn -0.70694668 0.00058060 0.70726661
vn 0.01956181 -0.70810628 0.70583485
vn 0.09192525 -0.99570438 -0.01106921
vn 0.75873045 -0.65126445 -0.01351743
vn 0.73731388 -0.61618211 -0.27692571
vn 0.08575716 -0.90512894 -0.41639802
vn 0.19207509 0.22324839 -0.95565020
vn -0.67620748 0.21099713 -0.70584960
vn -0.70710679 -0.00000271 0.70710677
vn -0.01291037 -0.70092152 0.71312155
vn 0.00873061 -0.99993700 -0.00705458
vn 0.02923411 -0.99805068 -0.05513812
vn 0.08682452 -0.99470400 -0.05500408
vn 0.73482717 -0.67687243 -0.04327521
vn 0.73806786 -0.61949862 -0.26735238
vn 0.06249998 -0.89700172 -0.43758618
vn 0.17875512 0.22517590 -0.95777994
vn 0.07913867 -0.91934023 -0.38542265
vn 0.06618983 -0.90427572 -0.42178707
vn -0.31285408 0.22761106 -0.92212555
vn -0.15742751 -0.89138382 -0.42503114
vn -0.15941457 -0.89740358 -0.41140467
vn -0.76230732 -0.59395411 -0.25711098
vn -0.77664594 -0.62878799 0.03803604
vn -0.61658887 -0.50136014 0.60700591
vn -0.05522339 -0.70218831 0.70984643
vn -0.08481322 -0.99606113 0.02586401
vn -0.06204481 -0.99775926 -0.02503815
vn -0.02182223 -0.99752434 -0.06685044
vn 0.00025882 -0.99666202 -0.08163794
vn 0.05114054 -0.99620656 -0.07040689
vn 0.08280636 -0.99472858 -0.06048272
vn 0.08100169 -0.99192376 -0.09760110
vn 0.73801428 -0.67103486 -0.07104318
vn 0.73956972 -0.62495703 -0.24993066
vn 0.09751961 -0.91807208 -0.38423115
vn 0.08966254 0.22503041 -0.97021747
vn 0.13309639 0.22595870 -0.96500156
vn 0.01325486 -0.91066292 -0.41293746
vn 0.10121660 -0.92936269 -0.35502140
vn 0.07283667 -0.93372546 -0.35050190
vn 0.00543427 -0.92432466 -0.38156833
vn -0.18515682 0.22025033 -0.95770911
vn -0.10860455 -0.89770060 -0.42701134
vn -0.09885422 -0.91184758 -0.39844928
vn -0.15677111 -0.90867271 -0.38695830
vn -0.76400990 -0.59788037 -0.24254471
vn -0.13371695 -0.68028257 0.72064930
vn -0.76503184 -0.64377155 0.01686630
vn -0.10336597 -0.68609903 0.72012748
vn -0.16727382 -0.98515054 0.03870241
vn -0.14552206 -0.98928996 0.01134509
vn -0.11377490 -0.68418351 0.72038059
vn -0.71725019 -0.69557694 -0.04153178
vn -0.02325302 -0.99722171 -0.07076837
vn -0.02513274 -0.99649659 -0.07976777
vn -0.71170669 -0.69921843 -0.06758087
vn -0.00385784 -0.99320538 -0.11631078
vn 0.04606102 -0.99240487 -0.11406558
vn 0.09356944 -0.98228480 -0.16236175
vn 0.10191905 -0.98528086 -0.13723750
vn 0.74508596 -0.66046292 -0.09292818
vn 0.74361193 -0.62652779 -0.23346140
vn 0.00878038 0.21705225 -0.97612050
vn -0.02801828 -0.90084911 -0.43322726
vn 0.01599824 -0.89756653 -0.44058867
vn 0.74320167 -0.62974815 -0.22598349
vn 0.08796803 -0.93814180 -0.33489041
vn -0.00495628 -0.94112113 -0.33803320
vn -0.07543090 -0.92872235 -0.36302201
vn -0.09984346 0.22833426 -0.96844966
vn -0.15774521 -0.91753347 -0.36503256
vn -0.76618313 -0.59791855 -0.23549272
vn -0.12680927 -0.68324687 0.71909187
vn -0.76679835 -0.64182136 0.00925372
vn -0.76417982 -0.64499312 0.00361609
vn -0.76199303 -0.64758434 -0.00106781
vn -0.71441538 -0.69081957 -0.11126090
vn -0.02456095 -0.98488161 -0.17147878
vn 0.06013700 -0.98457956 -0.16427607
vn 0.09259626 -0.97349883 -0.20910753
vn 0.73902060 -0.66354534 -0.11643085
vn 0.10549212 -0.93939002 -0.32621740
vn 0.75018448 -0.62566362 -0.21393522
vn 0.11673972 -0.94207190 -0.31443978
vn 0.06819168 -0.94557940 -0.31816582
vn 0.06348784 -0.94031977 -0.33431726
vn -0.01592862 -0.94693594 -0.32102743
vn -0.10557340 -0.93977662 -0.32507563
vn -0.07532511 -0.94038065 -0.33167809
vn -0.12054503 -0.93084021 -0.34497160
vn -0.76170496 -0.60598700 -0.22931488
vn -0.72757376 -0.66843579 -0.15436976
vn -0.04725328 -0.97349775 -0.22376162
vn 0.00855047 -0.98198166 -0.18878270
vn 0.04700614 -0.97536235 -0.21554283
vn 0.73683501 -0.65829253 -0.15402957
vn 0.74186088 -0.65783769 -0.12996923
vn 0.09125080 -0.96642412 -0.24020347
vn 0.10268919 -0.94515034 -0.31007381
vn 0.74797753 -0.63137753 -0.20467542
vn 0.11851785 -0.94853867 -0.29364588
vn 0.09285513 -0.95493112 -0.28192994
vn 0.04611879 -0.95435518 -0.29509192
vn -0.02012001 -0.96209632 -0.27196664
vn -0.06353161 -0.95057046 -0.30394003
vn -0.12892834 -0.94077602 -0.31355695
vn -0.14996973 -0.93170730 -0.33080295
vn -0.15180321 -0.92929699 -0.33669407
vn -0.75943036 -0.61157951 -0.22189194
vn -0.73303043 -0.65745850 -0.17439814
vn -0.07466362 -0.96686748 -0.24411598
vn -0.06788695 -0.96936642 -0.23605106
vn -0.03749544 -0.96960361 -0.24179108
vn -0.01350489 -0.97283101 -0.23112215
vn 0.04326404 -0.97087142 -0.23566269
vn 0.10962329 -0.95767321 -0.26616678
vn 0.12744299 -0.95474495 -0.26873849
vn 0.74832575 -0.63641089 -0.18705547
vn 0.05160025 -0.96455543 -0.25878608
vn -0.08920712 -0.95726588 -0.27510746
vn -0.75741476 -0.61647980 -0.21511749
vn -0.74265083 -0.64049378 -0.19554400
f 1//1 2//2 6//6
f 1//1 6//6 12//12
f 1//1 12//12 22//22
f 1//1 22//22 42//42
f 1//1 42//42 70//70
f 1//1 70//70 90//90
f 1//1 90//90 106//106
f 1//1 106//106 105//105
f 1//1 105//105 127//127
f 1//1 127//127 109//109
f 1//1 109//109 92//92
f 1//1 92//92 75//75
f 1//1 75//75 71//71
f 1//1 71//71 43//43
f 1//1 43//43 23//23
f 1//1 23//23 13//13
f 1//1 13//13 7//7
f 1//1 7//7 3//3
f 1//1 3//3 4//4
f 1//1 4//4 9//9
f 1//1 9//9 17//17
f 1//1 17//17 33//33
f 1//1 33//33 56//56
f 1//1 56//56 82//82
f 1//1 82//82 61//61
f 1//1 61//61 58//58
f 1//1 58//58 34//34
f 1//1 34//34 18//18
f 1//1 18//18 10//10
f 1//1 10//10 5//5
f 1//1 5//5 2//2
f 2//2 5//5 6//6
f 3//3 7//7 15//15
f 3//3 15//15 25//25
f 3//3 25//25 46//46
f 3//3 46//46 45//45
f 3//3 45//45 72//72
f 3//3 72//72 79//79
f 3//3 79//79 51//51
f 3//3 51//51 28//28
f 3//3 28//28 16//16
f 3//3 16//16 8//8
f 3//3 8//8 4//4
f 4//4 8//8 9//9
f 5//5 10//10 11//11
f 5//5 11//11 6//6
f 6//6 11//11 12//12
f 7//7 13//13 14//14
f 7//7 14//14 15//15
f 8//8 16//16 31//31
f 8//8 31//31 55//55
f 8//8 55//55 81//81
f 8//8 81//81 100//100
f 8//8 100//100 118//118
f 8//8 118//118 130//130
f 8//8 130//130 131//131
f 8//8 131//131 119//119
f 8//8 119//119 101//101
f 8//8 101//101 86//86
f 8//8 86//86 65//65
f 8//8 65//65 62//62
f 8//8 62//62 85//85
f 8//8 85//85 84//84
f 8//8 84//84 83//83
f 8//8 83//83 57//57
f 8//8 57//57 32//32
f 8//8 32//32 17//17
f 8//8 17//17 9//9
f 10//10 18//18 19//19
f 10//10 19//19 11//11
f 11//11 19//19 20//20
f 11//11 20//20 21//21
f 11//11 21//21 22//22
f 11//11 22//22 12//12
f 13//13 23//23 14//14
f 14//14 24//24 25//25
f 14//14 25//25 15//15
f 14//14 23//23 26//26
f 14//14 26//26 27//27
f 14//14 27//27 24//24
f 16//16 28//28 29//29
f 16//16 29//29 30//30
f 16//16 30//30 31//31
f 17//17 32//32 33//33
f 18//18 34//34 35//35
f 18//18 35//35 19//19
f 19//19 35//35 36//36
f 19//19 36//36 20//20
f 20//20 36//36 37//37
f 20//20 37//37 38//38
f 20//20 38//38 39//39
f 20//20 39//39 40//40
f 20//20 40//40 22//22
f 20//20 22//22 21//21
f 22//22 40//40 41//41
f 22//22 41//41 42//42
f 23//23 43//43 44//44
f 23//23 44//44 26//26
f 24//24 45//45 46//46
f 24//24 46//46 25//25
f 24//24 27//27 47//47
f 24//24 47//47 45//45
f 26//26 48//48 49//49
f 26//26 49//49 50//50
f 26//26 50//50 47//47
f 26//26 47//47 27//27
f 26//26 44//44 48//48
f 28//28 51//51 52//52
f 28//28 52//52 29//29
f 29//29 52//52 30//30
f 30//30 53//53 54//54
f 30//30 54//54 31//31
f 30//30 52//52 53//53
f 31//31 54//54 55//55
f 32//32 56//56 33//33
f 32//32 57//57 56//56
f 34//34 58//58 35//35
f 35//35 59//59 60//60
f 35//35 60//60 36//36
f 35//35 58//58 61//61
f 35//35 61//61 59//59
f 36//36 60//60 62//62
f 36//36 62//62 37//37
f 37//37 62//62 63//63
f 37//37 63//63 38//38
f 38//38 63//63 64//64
f 38//38 64//64 65//65
f 38//38 65//65 66//66
f 38//38 66//66 67//67
f 38//38 67//67 39//39
f 39//39 67//67 41//41
f 39//39 41//41 40//40
f 41//41 67//67 68//68
f 41//41 68//68 69//69
f 41//41 69//69 42//42
f 42//42 69//69 70//70
f 43//43 48//48 44//44
f 43//43 71//71 48//48
f 45//45 47//47 72//72
f 47//47 73//73 74//74
f 47//47 74//74 72//72
f 47//47 50//50 53//53
f 47//47 53//53 73//73
f 48//48 71//71 75//75
f 48//48 75//75 76//76
f 48//48 76//76 49//49
f 49//49 76//76 77//77
f 49//49 77//77 50//50
f 50//50 77//77 78//78
f 50//50 78//78 53//53
f 51//51 79//79 73//73
f 51//51 73//73 52//52
f 52//52 73//73 53//53
f 53//53 78//78 80//80
f 53//53 80//80 54//54
f 54//54 80//80 55//55
f 55//55 80//80 81//81
f 56//56 57//57 82//82
f 57//57 83//83 60//60
f 57//57 60//60 59//59
f 57//57 59//59 82//82
f 59//59 61//61 82//82
f 60//60 83//83 84//84
f 60//60 84//84 85//85
f 60//60 85//85 62//62
f 62//62 65//65 63//63
f 63//63 65//65 64//64
f 65//65 86//86 87//87
f 65//65 87//87 66//66
f 66//66 87//87 88//88
f 66//66 88//88 67//67
f 67//67 88//88 68//68
f 68//68 88//88 89//89
f 68//68 89//89 90//90
f 68//68 90//90 69//69
f 69//69 90//90 70//70
f 72//72 74//74 73//73
f 72//72 73//73 79//79
f 75//75 91//91 76//76
f 75//75 92//92 93//93
f 75//75 93//93 91//91
f 76//76 91//91 94//94
f 76//76 94//94 95//95
f 76//76 95//95 77//77
f 77//77 95//95 94//94
f 77//77 94//94 96//96
f 77//77 96//96 97//97
f 77//77 97//97 98//98
f 77//77 98//98 99//99
f 77//77 99//99 78//78
f 78//78 99//99 80//80
f 80//80 99//99 100//100
f 80//80 100//100 81//81
f 86//86 101//101 87//87
f 87//87 102//102 103//103
f 87//87 103//103 88//88
f 87//87 101//101 102//102
f 88//88 103//103 104//104
f 88//88 104//104 89//89
f 89//89 105//105 106//106
f 89//89 106//106 90//90
f 89//89 104//104 107//107
f 89//89 107//107 105//105
f 91//91 93//93 108//108
f 91//91 108//108 94//94
f 92//92 109//109 93//93
f 93//93 109//109 110//110
f 93//93 110//110 108//108
f 94//94 108//108 111//111
f 94//94 111//111 112//112
f 94//94 112//112 96//96
f 96//96 112//112 113//113
f 96//96 113//113 114//114
f 96//96 114//114 97//97
f 97//97 114//114 115//115
f 97//97 115//115 116//116
f 97//97 116//116 117//117
f 97//97 117//117 99//99
f 97//97 99//99 98//98
f 99//99 117//117 118//118
f 99//99 118//118 100//100
f 101//101 119//119 120//120
f 101//101 120//120 121//121
f 101//101 121//121 102//102
f 102//102 121//121 122//122
f 102//102 122//122 123//123
f 102//102 123//123 103//103
f 103//103 123//123 104//104
f 104//104 123//123 124//124
f 104//104 124//124 107//107
f 105//105 107//107 125//125
f 105//105 125//125 126//126
f 105//105 126//126 127//127
f 107//107 128//128 111//111
f 107//107 111//111 125//125
f 107//107 124//124 128//128
f 108//108 110//110 111//111
f 109//109 127//127 110//110
f 110//110 127//127 125//125
f 110//110 125//125 111//111
f 111//111 128//128 112//112
f 112//112 128//128 113//113
f 113//113 128//128 124//124
f 113//113 124//124 123//123
f 113//113 123//123 122//122
f 113//113 122//122 129//129
f 113//113 129//129 114//114
f 114//114 129//129 115//115
f 115//115 130//130 116//116
f 115//115 129//129 131//131
f 115//115 131//131 130//130
f 116//116 130//130 118//118
f 116//116 118//118 117//117
f 119//119 131//131 129//129
f 119//119 129//129 120//120
f 120//120 129//129 122//122
f 120//120 122//122 121//121
f 125//125 127//127 126//126
