# https://github.com/mikedh/trimesh
v 0.01360997 -0.11958615 0.22991295 0.11764706 0.63921569 0.14117647
v 0.01147082 -0.11958615 0.23066697 0.11764706 0.63921569 0.14117647
v 0.00639176 -0.12567413 0.21557574 0.11764706 0.63921569 0.14117647
v 0.01360997 -0.13614939 0.18393031 0.11764706 0.63921569 0.14117647
v 0.01360997 -0.11958615 0.11706080 0.11764706 0.63921569 0.14117647
v 0.00908572 -0.11958615 0.23134218 0.11764706 0.63921569 0.14117647
v 0.00408674 -0.12449478 0.21939075 0.11764706 0.63921569 0.14117647
v 0.00281126 -0.12620917 0.21496803 0.11764706 0.63921569 0.14117647
v 0.01360997 -0.13715571 0.18103811 0.11764706 0.63921569 0.14117647
v 0.01360997 -0.14032038 0.11706080 0.11764706 0.63921569 0.14117647
v -0.01560602 -0.11958615 0.11706080 0.11764706 0.63921569 0.14117647
v 0.00438703 -0.11958615 0.23198363 0.11764706 0.63921569 0.14117647
v 0.00018594 -0.12460635 0.21954830 0.11764706 0.63921569 0.14117647
v 0.00411820 -0.11958615 0.23201740 0.11764706 0.63921569 0.14117647
v -0.00189315 -0.12638219 0.21481049 0.11764706 0.63921569 0.14117647
v 0.00080938 -0.12755245 0.21135560 0.11764706 0.63921569 0.14117647
v -0.01560602 -0.13751543 0.18161206 0.11764706 0.63921569 0.14117647
v 0.01360997 -0.13786831 0.17808963 0.11764706 0.63921569 0.14117647
v 0.00095237 -0.14241269 0.11767974 0.11764706 0.63921569 0.14117647
v 0.00092949 -0.14237854 0.11706080 0.11764706 0.63921569 0.14117647
v 0.01360997 -0.14048885 0.12632260 0.11764706 0.63921569 0.14117647
v 0.00469875 -0.14204842 0.12760551 0.11764706 0.63921569 0.14117647
v -0.01560602 -0.11958615 0.22950782 0.11764706 0.63921569 0.14117647
v -0.01560602 -0.14114681 0.11706080 0.11764706 0.63921569 0.14117647
v -0.00315148 -0.12476798 0.21896310 0.11764706 0.63921569 0.14117647
v 0.00358341 -0.11958615 0.23200615 0.11764706 0.63921569 0.14117647
v -0.00163291 -0.11958615 0.23187110 0.11764706 0.63921569 0.14117647
v -0.00190459 -0.12802373 0.20994888 0.11764706 0.63921569 0.14117647
v -0.00624867 -0.12569690 0.21591334 0.11764706 0.63921569 0.14117647
v -0.01560602 -0.13626096 0.18520199 0.11764706 0.63921569 0.14117647
v -0.01560602 -0.13833050 0.17813465 0.11764706 0.63921569 0.14117647
v -0.01560602 -0.13907728 0.17228273 0.11764706 0.63921569 0.14117647
v -0.01560602 -0.13941196 0.16959310 0.11764706 0.63921569 0.14117647
v -0.00129259 -0.14232390 0.14197651 0.11764706 0.63921569 0.14117647
v 0.01360997 -0.13825309 0.17471354 0.11764706 0.63921569 0.14117647
v -0.00110098 -0.14255613 0.11821992 0.11764706 0.63921569 0.14117647
v -0.00078926 -0.14247416 0.11706080 0.11764706 0.63921569 0.14117647
v 0.00072073 -0.14262898 0.12514095 0.11764706 0.63921569 0.14117647
v 0.01360997 -0.14050025 0.12716663 0.11764706 0.63921569 0.14117647
v 0.01360997 -0.14060724 0.13627087 0.11764706 0.63921569 0.14117647
v 0.00672064 -0.14172740 0.13380630 0.11764706 0.63921569 0.14117647
v 0.00105819 -0.14263581 0.13391884 0.11764706 0.63921569 0.14117647
v -0.01560602 -0.11962257 0.22941780 0.11764706 0.63921569 0.14117647
v -0.00603418 -0.11958615 0.23135343 0.11764706 0.63921569 0.14117647
v -0.01264038 -0.14182530 0.11706080 0.11764706 0.63921569 0.14117647
v -0.01207700 -0.14200062 0.11794984 0.11764706 0.63921569 0.14117647
v -0.01560602 -0.14122878 0.11921025 0.11764706 0.63921569 0.14117647
v -0.01560602 -0.12335186 0.21993093 0.11764706 0.63921569 0.14117647
v -0.01560602 -0.12475204 0.21617217 0.11764706 0.63921569 0.14117647
v -0.01560602 -0.14147922 0.14103119 0.11764706 0.63921569 0.14117647
v -0.01197404 -0.14215086 0.13802645 0.11764706 0.63921569 0.14117647
v -0.00876532 -0.14240359 0.13878044 0.11764706 0.63921569 0.14117647
v -0.00641454 -0.14258800 0.13791391 0.11764706 0.63921569 0.14117647
v -0.00519911 -0.14230795 0.14132378 0.11764706 0.63921569 0.14117647
v -0.00279686 -0.14265858 0.13744126 0.11764706 0.63921569 0.14117647
v 0.00068355 -0.14244911 0.13962446 0.11764706 0.63921569 0.14117647
v 0.01360997 -0.13845573 0.17262034 0.11764706 0.63921569 0.14117647
v -0.00499321 -0.14264493 0.11925527 0.11764706 0.63921569 0.14117647
v -0.00433545 -0.14254019 0.11706080 0.11764706 0.63921569 0.14117647
v -0.00144702 -0.14250831 0.11706080 0.11764706 0.63921569 0.14117647
v -0.00253947 -0.14281340 0.12492713 0.11764706 0.63921569 0.14117647
v -0.00263385 -0.14284071 0.13124046 0.11764706 0.63921569 0.14117647
v 0.01360997 -0.14051618 0.14259546 0.11764706 0.63921569 0.14117647
v 0.01360997 -0.14051162 0.14284304 0.11764706 0.63921569 0.14117647
v 0.01360997 -0.14050934 0.14289930 0.11764706 0.63921569 0.14117647
v -0.01193972 -0.14196417 0.11706080 0.11764706 0.63921569 0.14117647
v -0.01114755 -0.14206207 0.11706080 0.11764706 0.63921569 0.14117647
v -0.00826771 -0.14238764 0.11706080 0.11764706 0.63921569 0.14117647
v -0.00894835 -0.14255613 0.12219248 0.11764706 0.63921569 0.14117647
v -0.01185965 -0.14229657 0.12662645 0.11764706 0.63921569 0.14117647
v -0.01560602 -0.14163406 0.13070029 0.11764706 0.63921569 0.14117647
v -0.01560602 -0.14171828 0.13681105 0.11764706 0.63921569 0.14117647
v -0.01560602 -0.14172056 0.13676603 0.11764706 0.63921569 0.14117647
v -0.01268042 -0.14222373 0.13358124 0.11764706 0.63921569 0.14117647
v -0.00829631 -0.14261533 0.13291727 0.11764706 0.63921569 0.14117647
v 0.01360997 -0.14018832 0.14968528 0.11764706 0.63921569 0.14117647
v -0.00567099 -0.14280884 0.12652516 0.11764706 0.63921569 0.14117647
v -0.00616573 -0.14249693 0.11706080 0.11764706 0.63921569 0.14117647
vn 0.65812891 0.16771896 0.73398685
vn 0.29801810 0.17818001 0.93778308
vn 0.09987210 -0.93630566 0.33668573
vn 0.73309636 -0.64216218 0.22404788
vn 0.57735027 0.57735027 -0.57735027
vn 0.20756206 0.17569401 0.96231471
vn 0.06525391 -0.93419594 0.35074190
vn 0.05384455 -0.94006737 0.33671071
vn 0.70462423 -0.68243286 0.19439670
vn 0.61851558 -0.51730506 -0.59146763
vn -0.57735027 0.57735027 -0.57735027
vn 0.12737379 0.18505464 0.97443866
vn 0.00993626 -0.93253491 0.36094310
vn 0.06028672 0.17967175 0.98187758
vn -0.01834766 -0.94026264 0.33995520
vn 0.02565568 -0.94638044 0.32203393
vn -0.69165869 -0.69494398 0.19662433
vn 0.69990773 -0.70311949 0.12550757
vn 0.11064729 -0.99292482 -0.04309847
vn 0.07467104 -0.69383013 -0.71625693
vn 0.76443207 -0.64462114 -0.01035393
vn 0.15975277 -0.98708046 -0.01229743
vn -0.60623825 0.17316319 0.77620209
vn -0.63276664 -0.49061635 -0.59908427
vn -0.04657009 -0.93069436 0.36282121
vn -0.02261664 0.19120178 0.98129015
vn -0.06753592 0.18698516 0.98003849
vn -0.00249555 -0.94775343 0.31899407
vn -0.07237784 -0.93398437 0.34990662
vn -0.71829590 -0.65626349 0.23101781
vn -0.68996245 -0.71233917 0.12854855
vn -0.70098614 -0.70759601 0.08902984
vn -0.69948041 -0.71002813 0.08116169
vn 0.01674965 -0.99558421 0.09236629
vn 0.71496213 -0.69484121 0.07761993
vn 0.03878147 -0.99844370 -0.04007717
vn 0.03697073 -0.68637319 -0.72630917
vn 0.10568532 -0.99426838 -0.01615527
vn 0.76485861 -0.64414659 -0.00815301
vn 0.75927703 -0.65075899 0.00333473
vn 0.15935937 -0.98721879 0.00190940
vn 0.09781190 -0.99504766 0.01769140
vn -0.73147407 -0.63303810 0.25339387
vn -0.15190300 0.18847369 0.97025932
vn -0.14770658 -0.67405982 -0.72375833
vn -0.17044128 -0.98427719 -0.04634858
vn -0.78253659 -0.62219243 -0.02265114
vn -0.73287377 -0.63485964 0.24464111
vn -0.73635422 -0.63412361 0.23594429
vn -0.74914814 -0.66087708 0.04492822
vn -0.10855214 -0.99278503 0.05093448
vn -0.07124022 -0.99561554 0.06061796
vn -0.03630419 -0.99787683 0.05407251
vn -0.02266805 -0.99554968 0.09147128
vn 0.00713212 -0.99881890 0.04806182
vn 0.07721231 -0.99524200 0.05942745
vn 0.72839427 -0.68213271 0.06431758
vn -0.01900768 -0.99908481 -0.03831782
vn -0.00215639 -0.69365069 -0.72030832
vn 0.01922465 -0.69378437 -0.71992615
vn 0.02405540 -0.99956360 -0.01714485
vn 0.01217407 -0.99986616 0.01092981
vn 0.75954849 -0.65035475 0.01117079
vn 0.75390677 -0.65660634 0.02219654
vn 0.75345208 -0.65684939 0.02930589
vn -0.10751904 -0.68382263 -0.72168294
vn -0.07923291 -0.68534842 -0.72389204
vn -0.05558040 -0.69624085 -0.71565319
vn -0.08814222 -0.99574638 -0.02683462
vn -0.14654908 -0.98909055 -0.01494142
vn -0.77069725 -0.63709446 -0.01167843
vn -0.75283985 -0.65727964 0.03486591
vn -0.75000974 -0.66111540 0.02029353
vn -0.13086621 -0.99136602 0.00821291
vn -0.06485417 -0.99778298 0.01493519
vn 0.74581750 -0.66464308 0.04478663
vn -0.03872533 -0.99923286 -0.00583372
vn -0.02929409 -0.69369044 -0.71967731
f 1//1 2//2 3//3
f 1//1 3//3 4//4
f 1//1 4//4 9//9
f 1//1 9//9 18//18
f 1//1 18//18 35//35
f 1//1 35//35 57//57
f 1//1 57//57 76//76
f 1//1 76//76 65//65
f 1//1 65//65 64//64
f 1//1 64//64 63//63
f 1//1 63//63 40//40
f 1//1 40//40 39//39
f 1//1 39//39 21//21
f 1//1 21//21 10//10
f 1//1 10//10 5//5
f 1//1 5//5 11//11
f 1//1 11//11 23//23
f 1//1 23//23 44//44
f 1//1 44//44 27//27
f 1//1 27//27 26//26
f 1//1 26//26 14//14
f 1//1 14//14 12//12
f 1//1 12//12 6//6
f 1//1 6//6 2//2
f 2//2 6//6 3//3
f 3//3 6//6 7//7
f 3//3 7//7 8//8
f 3//3 8//8 4//4
f 4//4 8//8 9//9
f 5//5 10//10 20//20
f 5//5 20//20 37//37
f 5//5 37//37 60//60
f 5//5 60//60 59//59
f 5//5 59//59 78//78
f 5//5 78//78 68//68
f 5//5 68//68 67//67
f 5//5 67//67 66//66
f 5//5 66//66 45//45
f 5//5 45//45 24//24
f 5//5 24//24 11//11
f 6//6 12//12 7//7
f 7//7 13//13 8//8
f 7//7 12//12 14//14
f 7//7 14//14 13//13
f 8//8 13//13 15//15
f 8//8 15//15 16//16
f 8//8 16//16 9//9
f 9//9 16//16 17//17
f 9//9 17//17 18//18
f 10//10 19//19 20//20
f 10//10 21//21 22//22
f 10//10 22//22 19//19
f 11//11 24//24 47//47
f 11//11 47//47 71//71
f 11//11 71//71 73//73
f 11//11 73//73 72//72
f 11//11 72//72 50//50
f 11//11 50//50 33//33
f 11//11 33//33 32//32
f 11//11 32//32 31//31
f 11//11 31//31 17//17
f 11//11 17//17 30//30
f 11//11 30//30 49//49
f 11//11 49//49 48//48
f 11//11 48//48 43//43
f 11//11 43//43 23//23
f 13//13 25//25 15//15
f 13//13 14//14 26//26
f 13//13 26//26 27//27
f 13//13 27//27 25//25
f 15//15 28//28 16//16
f 15//15 25//25 29//29
f 15//15 29//29 30//30
f 15//15 30//30 17//17
f 15//15 17//17 28//28
f 16//16 28//28 17//17
f 17//17 31//31 18//18
f 18//18 31//31 32//32
f 18//18 32//32 33//33
f 18//18 33//33 34//34
f 18//18 34//34 35//35
f 19//19 36//36 37//37
f 19//19 37//37 20//20
f 19//19 22//22 38//38
f 19//19 38//38 36//36
f 21//21 39//39 22//22
f 22//22 39//39 40//40
f 22//22 40//40 41//41
f 22//22 41//41 42//42
f 22//22 42//42 38//38
f 23//23 43//43 44//44
f 24//24 45//45 46//46
f 24//24 46//46 47//47
f 25//25 48//48 29//29
f 25//25 27//27 44//44
f 25//25 44//44 43//43
f 25//25 43//43 48//48
f 29//29 48//48 49//49
f 29//29 49//49 30//30
f 33//33 50//50 51//51
f 33//33 51//51 52//52
f 33//33 52//52 53//53
f 33//33 53//53 54//54
f 33//33 54//54 34//34
f 34//34 54//54 53//53
f 34//34 53//53 55//55
f 34//34 55//55 56//56
f 34//34 56//56 35//35
f 35//35 56//56 57//57
f 36//36 58//58 59//59
f 36//36 59//59 60//60
f 36//36 60//60 37//37
f 36//36 38//38 61//61
f 36//36 61//61 58//58
f 38//38 42//42 62//62
f 38//38 62//62 61//61
f 40//40 42//42 41//41
f 40//40 63//63 42//42
f 42//42 56//56 55//55
f 42//42 55//55 62//62
f 42//42 63//63 64//64
f 42//42 64//64 65//65
f 42//42 65//65 56//56
f 45//45 66//66 46//46
f 46//46 66//66 67//67
f 46//46 67//67 68//68
f 46//46 68//68 69//69
f 46//46 69//69 70//70
f 46//46 70//70 71//71
f 46//46 71//71 47//47
f 50//50 72//72 51//51
f 51//51 72//72 73//73
f 51//51 73//73 74//74
f 51//51 74//74 52//52
f 52//52 74//74 75//75
f 52//52 75//75 53//53
f 53//53 75//75 62//62
f 53//53 62//62 55//55
f 56//56 65//65 76//76
f 56//56 76//76 57//57
f 58//58 61//61 77//77
f 58//58 77//77 69//69
f 58//58 69//69 78//78
f 58//58 78//78 59//59
f 61//61 62//62 77//77
f 62//62 75//75 77//77
f 68//68 78//78 69//69
f 69//69 77//77 75//75
f 69//69 75//75 70//70
f 70//70 75//75 74//74
f 70//70 74//74 73//73
f 70//70 73//73 71//71
