# https://github.com/mikedh/trimesh
v -0.05706638 -0.12481756 -0.04604583 0.56470588 0.92549020 0.07058824
v -0.05477129 -0.12656739 -0.04604583 0.56470588 0.92549020 0.07058824
v -0.04553550 -0.12481756 0.01740084 0.56470588 0.92549020 0.07058824
v 0.05620240 -0.12481756 -0.04604583 0.56470588 0.92549020 0.07058824
v -0.05230989 -0.12823904 -0.04604583 0.56470588 0.92549020 0.07058824
v -0.04467067 -0.12542488 0.01740084 0.56470588 0.92549020 0.07058824
v -0.04485916 -0.12529460 0.01740084 0.56470588 0.92549020 0.07058824
v 0.04486000 -0.12481756 0.01740084 0.56470588 0.92549020 0.07058824
v 0.05567021 -0.12481756 -0.04262349 0.56470588 0.92549020 0.07058824
v 0.05037044 -0.12848157 -0.03913905 0.56470588 0.92549020 0.07058824
v 0.05419558 -0.12633087 -0.04604583 0.56470588 0.92549020 0.07058824
v -0.04978197 -0.12969621 -0.04604583 0.56470588 0.92549020 0.07058824
v -0.03747496 -0.12986860 0.01740084 0.56470588 0.92549020 0.07058824
v -0.03933764 -0.12879424 0.01740084 0.56470588 0.92549020 0.07058824
v -0.03977005 -0.12854171 0.01740084 0.56470588 0.92549020 0.07058824
v -0.04228689 -0.12697427 0.01740084 0.56470588 0.92549020 0.07058824
v 0.04459390 -0.12500998 0.01740084 0.56470588 0.92549020 0.07058824
v 0.05195593 -0.12684800 -0.03590927 0.56470588 0.92549020 0.07058824
v 0.05431755 -0.12481756 -0.03503971 0.56470588 0.92549020 0.07058824
v 0.05473887 -0.12481756 -0.03738131 0.56470588 0.92549020 0.07058824
v 0.04688900 -0.13077858 -0.03854900 0.56470588 0.92549020 0.07058824
v 0.04930604 -0.12948777 -0.04146823 0.56470588 0.92549020 0.07058824
v 0.04908430 -0.13003495 -0.04604583 0.56470588 0.92549020 0.07058824
v -0.04290778 -0.13305356 -0.04604583 0.56470588 0.92549020 0.07058824
v -0.03577859 -0.13524835 -0.02982236 0.56470588 0.92549020 0.07058824
v -0.03407113 -0.13553296 -0.02321993 0.56470588 0.92549020 0.07058824
v -0.03500247 -0.13120350 0.01740084 0.56470588 0.92549020 0.07058824
v 0.04327450 -0.12584782 0.01740084 0.56470588 0.92549020 0.07058824
v 0.04387322 -0.13214758 -0.03490306 0.56470588 0.92549020 0.07058824
v 0.04348516 -0.13284911 -0.03897756 0.56470588 0.92549020 0.07058824
v 0.04585787 -0.13179280 -0.04209555 0.56470588 0.92549020 0.07058824
v 0.04619049 -0.13178277 -0.04604583 0.56470588 0.92549020 0.07058824
v -0.03621100 -0.13599798 -0.04604583 0.56470588 0.92549020 0.07058824
v -0.03078927 -0.13788411 -0.03616393 0.56470588 0.92549020 0.07058824
v -0.03318414 -0.13647904 -0.02962361 0.56470588 0.92549020 0.07058824
v -0.03021272 -0.13747321 -0.02561743 0.56470588 0.92549020 0.07058824
v -0.03146559 -0.13638483 -0.01954295 0.56470588 0.92549020 0.07058824
v -0.03175387 -0.13273284 0.01740084 0.56470588 0.92549020 0.07058824
v 0.04033634 -0.12761968 0.01740084 0.56470588 0.92549020 0.07058824
v 0.03807452 -0.12889847 0.01740084 0.56470588 0.92549020 0.07058824
v 0.03557986 -0.13027547 0.01740084 0.56470588 0.92549020 0.07058824
v 0.04411715 -0.13284108 -0.04287815 0.56470588 0.92549020 0.07058824
v 0.03346217 -0.13137791 0.01740084 0.56470588 0.92549020 0.07058824
v 0.03134447 -0.13241416 0.01740084 0.56470588 0.92549020 0.07058824
v 0.03990394 -0.13432433 -0.03728814 0.56470588 0.92549020 0.07058824
v 0.03097859 -0.13890032 -0.04198996 0.56470588 0.92549020 0.07058824
v 0.04173336 -0.13395754 -0.04246201 0.56470588 0.92549020 0.07058824
v 0.04366256 -0.13318785 -0.04604583 0.56470588 0.92549020 0.07058824
v -0.03215301 -0.13777786 -0.04604583 0.56470588 0.92549020 0.07058824
v -0.02971379 -0.13882416 -0.04604583 0.56470588 0.92549020 0.07058824
v -0.02739652 -0.13903461 -0.03084719 0.56470588 0.92549020 0.07058824
v -0.02677563 -0.13881013 -0.02384105 0.56470588 0.92549020 0.07058824
v -0.02601060 -0.13528241 0.01740084 0.56470588 0.92549020 0.07058824
v -0.02857179 -0.13415396 0.01740084 0.56470588 0.92549020 0.07058824
v 0.03902803 -0.13541271 -0.04604583 0.56470588 0.92549020 0.07058824
v 0.02290697 -0.13595389 0.01740084 0.56470588 0.92549020 0.07058824
v 0.03094533 -0.13910678 -0.04604583 0.56470588 0.92549020 0.07058824
v 0.03095641 -0.13910076 -0.04600235 0.56470588 0.92549020 0.07058824
v 0.03097859 -0.13909476 -0.04604583 0.56470588 0.92549020 0.07058824
v 0.02714235 -0.13942346 -0.03362358 0.56470588 0.92549020 0.07058824
v 0.02927113 -0.13954374 -0.04294648 0.56470588 0.92549020 0.07058824
v -0.02688650 -0.13986644 -0.04604583 0.56470588 0.92549020 0.07058824
v -0.02825025 -0.13912280 -0.03989681 0.56470588 0.92549020 0.07058824
v -0.02471337 -0.13995463 -0.03002112 0.56470588 0.92549020 0.07058824
v -0.02497947 -0.13963795 -0.02548078 0.56470588 0.92549020 0.07058824
v -0.02319440 -0.13897850 -0.00949334 0.56470588 0.92549020 0.07058824
v -0.02373768 -0.13617438 0.01740084 0.56470588 0.92549020 0.07058824
v 0.02147670 -0.13636880 0.01740084 0.56470588 0.92549020 0.07058824
v 0.01921487 -0.13956377 -0.00869832 0.56470588 0.92549020 0.07058824
v 0.02402679 -0.13951968 -0.02385968 0.56470588 0.92549020 0.07058824
v 0.02158757 -0.14190088 -0.04485950 0.56470588 0.92549020 0.07058824
v 0.02159866 -0.14188485 -0.04604583 0.56470588 0.92549020 0.07058824
v 0.02081145 -0.14185078 -0.04043718 0.56470588 0.92549020 0.07058824
v -0.02637648 -0.14004482 -0.04604583 0.56470588 0.92549020 0.07058824
v -0.01973514 -0.14229774 -0.04604583 0.56470588 0.92549020 0.07058824
v -0.01970187 -0.14230376 -0.04592781 0.56470588 0.92549020 0.07058824
v -0.01868184 -0.14191291 -0.03221986 0.56470588 0.92549020 0.07058824
v -0.01616500 -0.14237793 -0.02759878 0.56470588 0.92549020 0.07058824
v -0.02156455 -0.13959984 -0.01128836 0.56470588 0.92549020 0.07058824
v -0.02112106 -0.13894041 -0.00224495 0.56470588 0.92549020 0.07058824
v -0.01943578 -0.13914084 0.00068670 0.56470588 0.92549020 0.07058824
v -0.01194070 -0.13928917 0.01740084 0.56470588 0.92549020 0.07058824
v 0.00996798 -0.13933729 0.01740084 0.56470588 0.92549020 0.07058824
v 0.01781786 -0.14244206 -0.03802726 0.56470588 0.92549020 0.07058824
v 0.01694195 -0.14277077 -0.04110177 0.56470588 0.92549020 0.07058824
v 0.01658716 -0.14283893 -0.04604583 0.56470588 0.92549020 0.07058824
v 0.01828353 -0.14252023 -0.04604583 0.56470588 0.92549020 0.07058824
v -0.01969079 -0.14230977 -0.04604583 0.56470588 0.92549020 0.07058824
v -0.01842682 -0.14234786 -0.03941234 0.56470588 0.92549020 0.07058824
v -0.01392534 -0.14293714 -0.02915156 0.56470588 0.92549020 0.07058824
v -0.01436884 -0.14258036 -0.02401495 0.56470588 0.92549020 0.07058824
v -0.01177439 -0.14276679 -0.01935040 0.56470588 0.92549020 0.07058824
v -0.01176330 -0.13932925 0.01740084 0.56470588 0.92549020 0.07058824
v 0.00865967 -0.13958582 0.01740084 0.56470588 0.92549020 0.07058824
v 0.01501275 -0.14295921 -0.03690926 0.56470588 0.92549020 0.07058824
v 0.00129764 -0.14510389 -0.04531913 0.56470588 0.92549020 0.07058824
v 0.00113133 -0.14513594 -0.04604583 0.56470588 0.92549020 0.07058824
v -0.01728482 -0.14279483 -0.04604583 0.56470588 0.92549020 0.07058824
v -0.00511087 -0.14496759 -0.04604583 0.56470588 0.92549020 0.07058824
v -0.00413518 -0.14512393 -0.04604583 0.56470588 0.92549020 0.07058824
v -0.01173004 -0.14306943 -0.02514538 0.56470588 0.92549020 0.07058824
v -0.01691894 -0.14286500 -0.04604583 0.56470588 0.92549020 0.07058824
v -0.00253859 -0.14516401 -0.04243095 0.56470588 0.92549020 0.07058824
v -0.00920212 -0.14310151 -0.02058020 0.56470588 0.92549020 0.07058824
v -0.00878079 -0.14256032 -0.01248089 0.56470588 0.92549020 0.07058824
v -0.00901363 -0.13971610 0.01740084 0.56470588 0.92549020 0.07058824
v 0.00797225 -0.14323379 -0.02583482 0.56470588 0.92549020 0.07058824
v 0.01186393 -0.14307745 -0.03181613 0.56470588 0.92549020 0.07058824
v 0.00635349 -0.13980831 0.01740084 0.56470588 0.92549020 0.07058824
v 0.00192963 -0.14239997 -0.00774801 0.56470588 0.92549020 0.07058824
v 0.00532237 -0.14321174 -0.02110814 0.56470588 0.92549020 0.07058824
v 0.01232960 -0.14333202 -0.03714528 0.56470588 0.92549020 0.07058824
v -0.00077570 -0.14523818 -0.04307691 0.56470588 0.92549020 0.07058824
v -0.00106397 -0.14529429 -0.04604583 0.56470588 0.92549020 0.07058824
v -0.00317057 -0.14525622 -0.04604583 0.56470588 0.92549020 0.07058824
v -0.00131898 -0.14251423 -0.00660516 0.56470588 0.92549020 0.07058824
v -0.00420170 -0.14246412 -0.00671697 0.56470588 0.92549020 0.07058824
v -0.00610873 -0.14265253 -0.01025110 0.56470588 0.92549020 0.07058824
v -0.00782728 -0.13980430 0.01740084 0.56470588 0.92549020 0.07058824
v 0.00882598 -0.14353646 -0.03307078 0.56470588 0.92549020 0.07058824
v 0.00498974 -0.13990252 0.01740084 0.56470588 0.92549020 0.07058824
v 0.00188528 -0.14301531 -0.01548708 0.56470588 0.92549020 0.07058824
v -0.00249424 -0.14527625 -0.04604583 0.56470588 0.92549020 0.07058824
v 0.00106481 -0.14002679 0.01740084 0.56470588 0.92549020 0.07058824
v 0.00072110 -0.14003280 0.01740084 0.56470588 0.92549020 0.07058824
v -0.00269382 -0.14003880 0.01740084 0.56470588 0.92549020 0.07058824
v -0.00574285 -0.13995664 0.01740084 0.56470588 0.92549020 0.07058824
vn -0.83813331 0.25530364 -0.48202968
vn -0.43911375 -0.60755045 -0.66186219
vn -0.74890600 0.27045402 0.60497474
vn 0.83174556 0.25627012 -0.49246823
vn -0.39968752 -0.63352458 -0.66249264
vn -0.37422115 -0.55918466 0.73977770
vn -0.38336155 -0.54945281 0.74238503
vn 0.74643130 0.27557190 0.60572307
vn 0.93397936 0.32471542 0.14913906
vn 0.58443674 -0.80555691 0.09752830
vn 0.44056008 -0.59078053 -0.67593282
vn -0.35364952 -0.65468504 -0.66807149
vn -0.32919273 -0.59184324 0.73576744
vn -0.33788196 -0.58257720 0.73921552
vn -0.34784258 -0.57863968 0.73768670
vn -0.36070472 -0.56782267 0.73991184
vn 0.37850799 -0.55835488 0.73822187
vn 0.61028127 -0.78469229 0.10869581
vn 0.92678035 0.33645292 0.16696590
vn 0.92721315 0.33602482 0.16541793
vn 0.53540516 -0.83878508 0.09889847
vn 0.56679256 -0.81995184 0.08015719
vn 0.41160075 -0.61232346 -0.67501466
vn -0.31326687 -0.66314363 -0.67978260
vn -0.43653492 -0.89676334 0.07247602
vn -0.43044719 -0.89897304 0.08101045
vn -0.30668707 -0.60892830 0.73153904
vn 0.35281181 -0.57003600 0.74201266
vn 0.49403311 -0.86296934 0.10590191
vn 0.46164760 -0.88249329 0.08992821
vn 0.51586462 -0.85386838 0.06922773
vn 0.36567545 -0.62468142 -0.68996709
vn -0.29090295 -0.66216222 -0.69059154
vn -0.39413856 -0.91781498 0.04764927
vn -0.41170410 -0.90904971 0.06425238
vn -0.39881365 -0.91414849 0.07266510
vn -0.40608196 -0.90992346 0.08447921
vn -0.28278069 -0.61636528 0.73493464
vn 0.33835332 -0.57948539 0.74142681
vn 0.32623199 -0.58424925 0.74311877
vn 0.31678439 -0.59203981 0.74103746
vn 0.46599354 -0.88327878 0.05165864
vn 0.30248981 -0.60087557 0.73989761
vn 0.27955442 -0.61746796 0.73524326
vn 0.41578999 -0.90451547 0.09471249
vn 0.36906627 -0.92671874 0.07058665
vn 0.42536760 -0.90303774 0.05987688
vn 0.33088239 -0.64483164 -0.68899129
vn -0.28823741 -0.66387887 -0.69006089
vn -0.27082840 -0.67488736 -0.68642482
vn -0.36538313 -0.92948018 0.05061386
vn -0.37850158 -0.92252012 0.07545325
vn -0.26195528 -0.62764993 0.73309958
vn -0.27421551 -0.61829018 0.73656168
vn 0.30646388 -0.65770356 -0.68811766
vn 0.22750742 -0.64681265 0.72792429
vn 0.23253654 -0.68744602 -0.68800053
vn 0.33818609 -0.94000779 0.04489460
vn 0.27660964 -0.67687442 -0.68214964
vn 0.30380134 -0.94893740 0.08498565
vn 0.30172778 -0.95194286 0.05258454
vn -0.24359607 -0.68008635 -0.69147923
vn -0.35457892 -0.93408579 0.04192280
vn -0.31483170 -0.94803278 0.04598741
vn -0.32509275 -0.94352284 0.06386985
vn -0.33033558 -0.94018197 0.08328432
vn -0.21630867 -0.65027807 0.72825064
vn 0.17940068 -0.65207159 0.73662612
vn 0.25488818 -0.96295157 0.08806979
vn 0.29069741 -0.95292001 0.08624653
vn 0.24173513 -0.97020437 0.01635868
vn 0.16942930 -0.69377046 -0.69998305
vn 0.25913594 -0.96360974 0.06561131
vn -0.23529788 -0.68241302 -0.69206024
vn -0.21460960 -0.69304033 -0.68821350
vn -0.25740072 -0.96562831 0.03615020
vn -0.27995315 -0.95867041 0.05076692
vn -0.24719592 -0.96733378 0.05620976
vn -0.27016162 -0.95970423 0.07733366
vn -0.28237202 -0.95520300 0.08861866
vn -0.25210703 -0.96315757 0.09364585
vn -0.15802998 -0.65767063 0.73654319
vn 0.14613377 -0.66677389 0.73079238
vn 0.22651440 -0.97171624 0.06677404
vn 0.17952700 -0.98345909 0.02404732
vn 0.11735641 -0.70219637 -0.70224478
vn 0.13076157 -0.69451948 -0.70749142
vn -0.16493327 -0.70506384 -0.68969703
vn -0.24163095 -0.96950373 0.04095110
vn -0.17995016 -0.98276418 0.04233803
vn -0.21509415 -0.97430196 0.06685954
vn -0.16175127 -0.98387599 0.07631887
vn -0.12339389 -0.67203106 0.73016998
vn 0.09783821 -0.68023664 0.72643362
vn 0.17181592 -0.98349083 0.05678973
vn 0.11908367 -0.99251985 0.02689648
vn 0.07768008 -0.71593112 -0.69383603
vn -0.13912629 -0.70516073 -0.69526414
vn -0.11824417 -0.71079004 -0.69339443
vn -0.10412638 -0.71741236 -0.68882306
vn -0.14089317 -0.98877090 0.04981183
vn -0.13115298 -0.70637829 -0.69557790
vn -0.07089203 -0.99602615 0.05390936
vn -0.09181241 -0.99350367 0.06723795
vn -0.11794632 -0.98950551 0.08347158
vn -0.07383330 -0.67606760 0.73313113
vn 0.13351663 -0.98854514 0.07036919
vn 0.14857590 -0.98644103 0.06970863
vn 0.05703180 -0.67619407 0.73451273
vn 0.07893245 -0.99332703 0.08408969
vn 0.10051589 -0.99200336 0.07632758
vn 0.12977766 -0.99044704 0.04660917
vn 0.04248170 -0.99803700 0.04601568
vn 0.01954867 -0.72176349 -0.69186365
vn -0.06481583 -0.72968518 -0.68070437
vn 0.01989332 -0.99597753 0.08736715
vn -0.04708472 -0.99478482 0.09047753
vn -0.07566631 -0.99375193 0.08204696
vn -0.04941018 -0.66972724 0.74096158
vn 0.12044296 -0.99118677 0.05515695
vn 0.03610213 -0.67628881 0.73575138
vn 0.06225618 -0.99511039 0.07667779
vn -0.01719828 -0.71814356 -0.69568243
vn 0.01681636 -0.67205017 0.74031465
vn 0.00674678 -0.67188869 0.74062140
vn -0.00869349 -0.67330679 0.73931210
vn -0.03443585 -0.67524963 0.73678498
f 1//1 2//2 3//3
f 1//1 3//3 8//8
f 1//1 8//8 19//19
f 1//1 19//19 20//20
f 1//1 20//20 9//9
f 1//1 9//9 4//4
f 1//1 4//4 11//11
f 1//1 11//11 23//23
f 1//1 23//23 32//32
f 1//1 32//32 48//48
f 1//1 48//48 55//55
f 1//1 55//55 59//59
f 1//1 59//59 57//57
f 1//1 57//57 72//72
f 1//1 72//72 87//87
f 1//1 87//87 86//86
f 1//1 86//86 97//97
f 1//1 97//97 114//114
f 1//1 114//114 123//123
f 1//1 123//123 115//115
f 1//1 115//115 100//100
f 1//1 100//100 99//99
f 1//1 99//99 102//102
f 1//1 102//102 98//98
f 1//1 98//98 88//88
f 1//1 88//88 75//75
f 1//1 75//75 74//74
f 1//1 74//74 62//62
f 1//1 62//62 50//50
f 1//1 50//50 49//49
f 1//1 49//49 33//33
f 1//1 33//33 24//24
f 1//1 24//24 12//12
f 1//1 12//12 5//5
f 1//1 5//5 2//2
f 2//2 5//5 6//6
f 2//2 6//6 7//7
f 2//2 7//7 3//3
f 3//3 7//7 6//6
f 3//3 6//6 16//16
f 3//3 16//16 15//15
f 3//3 15//15 14//14
f 3//3 14//14 13//13
f 3//3 13//13 27//27
f 3//3 27//27 38//38
f 3//3 38//38 54//54
f 3//3 54//54 53//53
f 3//3 53//53 67//67
f 3//3 67//67 82//82
f 3//3 82//82 93//93
f 3//3 93//93 106//106
f 3//3 106//106 119//119
f 3//3 119//119 127//127
f 3//3 127//127 126//126
f 3//3 126//126 125//125
f 3//3 125//125 124//124
f 3//3 124//124 121//121
f 3//3 121//121 109//109
f 3//3 109//109 94//94
f 3//3 94//94 83//83
f 3//3 83//83 68//68
f 3//3 68//68 56//56
f 3//3 56//56 44//44
f 3//3 44//44 43//43
f 3//3 43//43 41//41
f 3//3 41//41 40//40
f 3//3 40//40 39//39
f 3//3 39//39 28//28
f 3//3 28//28 17//17
f 3//3 17//17 8//8
f 4//4 9//9 10//10
f 4//4 10//10 11//11
f 5//5 12//12 13//13
f 5//5 13//13 14//14
f 5//5 14//14 15//15
f 5//5 15//15 16//16
f 5//5 16//16 6//6
f 8//8 17//17 10//10
f 8//8 10//10 18//18
f 8//8 18//18 19//19
f 9//9 20//20 18//18
f 9//9 18//18 10//10
f 10//10 21//21 22//22
f 10//10 22//22 11//11
f 10//10 17//17 21//21
f 11//11 22//22 23//23
f 12//12 24//24 25//25
f 12//12 25//25 26//26
f 12//12 26//26 27//27
f 12//12 27//27 13//13
f 17//17 28//28 21//21
f 18//18 20//20 19//19
f 21//21 28//28 29//29
f 21//21 29//29 30//30
f 21//21 30//30 31//31
f 21//21 31//31 22//22
f 22//22 31//31 23//23
f 23//23 31//31 32//32
f 24//24 33//33 34//34
f 24//24 34//34 35//35
f 24//24 35//35 25//25
f 25//25 35//35 26//26
f 26//26 35//35 36//36
f 26//26 36//36 37//37
f 26//26 37//37 38//38
f 26//26 38//38 27//27
f 28//28 39//39 29//29
f 29//29 39//39 40//40
f 29//29 40//40 41//41
f 29//29 41//41 30//30
f 30//30 42//42 31//31
f 30//30 41//41 43//43
f 30//30 43//43 44//44
f 30//30 44//44 45//45
f 30//30 45//45 46//46
f 30//30 46//46 47//47
f 30//30 47//47 42//42
f 31//31 42//42 32//32
f 32//32 42//42 48//48
f 33//33 49//49 34//34
f 34//34 49//49 50//50
f 34//34 50//50 51//51
f 34//34 51//51 35//35
f 35//35 51//51 36//36
f 36//36 51//51 52//52
f 36//36 52//52 37//37
f 37//37 52//52 53//53
f 37//37 53//53 54//54
f 37//37 54//54 38//38
f 42//42 47//47 55//55
f 42//42 55//55 48//48
f 44//44 56//56 46//46
f 44//44 46//46 45//45
f 46//46 57//57 58//58
f 46//46 58//58 59//59
f 46//46 59//59 55//55
f 46//46 55//55 47//47
f 46//46 56//56 60//60
f 46//46 60//60 61//61
f 46//46 61//61 57//57
f 50//50 62//62 63//63
f 50//50 63//63 51//51
f 51//51 63//63 64//64
f 51//51 64//64 65//65
f 51//51 65//65 52//52
f 52//52 65//65 66//66
f 52//52 66//66 53//53
f 53//53 66//66 67//67
f 56//56 68//68 69//69
f 56//56 69//69 70//70
f 56//56 70//70 60//60
f 57//57 59//59 58//58
f 57//57 61//61 71//71
f 57//57 71//71 72//72
f 60//60 70//70 73//73
f 60//60 73//73 61//61
f 61//61 73//73 71//71
f 62//62 74//74 64//64
f 62//62 64//64 63//63
f 64//64 75//75 76//76
f 64//64 76//76 77//77
f 64//64 77//77 65//65
f 64//64 74//74 75//75
f 65//65 77//77 78//78
f 65//65 78//78 79//79
f 65//65 79//79 66//66
f 66//66 79//79 80//80
f 66//66 80//80 67//67
f 67//67 80//80 81//81
f 67//67 81//81 82//82
f 68//68 83//83 69//69
f 69//69 73//73 70//70
f 69//69 83//83 84//84
f 69//69 84//84 73//73
f 71//71 73//73 84//84
f 71//71 84//84 85//85
f 71//71 85//85 86//86
f 71//71 86//86 87//87
f 71//71 87//87 72//72
f 75//75 88//88 76//76
f 76//76 89//89 77//77
f 76//76 88//88 90//90
f 76//76 90//90 89//89
f 77//77 89//89 78//78
f 78//78 91//91 79//79
f 78//78 89//89 90//90
f 78//78 90//90 91//91
f 79//79 91//91 81//81
f 79//79 81//81 80//80
f 81//81 91//91 92//92
f 81//81 92//92 82//82
f 82//82 92//92 93//93
f 83//83 94//94 95//95
f 83//83 95//95 84//84
f 84//84 95//95 85//85
f 85//85 95//95 96//96
f 85//85 96//96 97//97
f 85//85 97//97 86//86
f 88//88 98//98 90//90
f 90//90 99//99 100//100
f 90//90 100//100 101//101
f 90//90 101//101 92//92
f 90//90 92//92 91//91
f 90//90 98//98 102//102
f 90//90 102//102 99//99
f 92//92 101//101 103//103
f 92//92 103//103 104//104
f 92//92 104//104 105//105
f 92//92 105//105 93//93
f 93//93 105//105 106//106
f 94//94 107//107 108//108
f 94//94 108//108 95//95
f 94//94 109//109 110//110
f 94//94 110//110 111//111
f 94//94 111//111 107//107
f 95//95 108//108 112//112
f 95//95 112//112 96//96
f 96//96 113//113 97//97
f 96//96 112//112 113//113
f 97//97 113//113 114//114
f 100//100 115//115 101//101
f 101//101 115//115 103//103
f 103//103 115//115 113//113
f 103//103 113//113 116//116
f 103//103 116//116 117//117
f 103//103 117//117 118//118
f 103//103 118//118 104//104
f 104//104 118//118 105//105
f 105//105 118//118 106//106
f 106//106 118//118 117//117
f 106//106 117//117 119//119
f 107//107 120//120 112//112
f 107//107 112//112 108//108
f 107//107 111//111 113//113
f 107//107 113//113 120//120
f 109//109 121//121 110//110
f 110//110 122//122 111//111
f 110//110 121//121 116//116
f 110//110 116//116 122//122
f 111//111 122//122 113//113
f 112//112 120//120 113//113
f 113//113 115//115 123//123
f 113//113 123//123 114//114
f 113//113 122//122 116//116
f 116//116 124//124 125//125
f 116//116 125//125 126//126
f 116//116 126//126 117//117
f 116//116 121//121 124//124
f 117//117 126//126 127//127
f 117//117 127//127 119//119
